<svg xmlns="http://www.w3.org/2000/svg">
  <defs>
    <!-- Feather Icons -->
    <symbol id="search" viewBox="0 0 24 24">
      <circle cx="11" cy="11" r="8"></circle>
      <line x1="21" y1="21" x2="16.65" y2="16.65"></line>
    </symbol>
    <symbol id="monitor" viewBox="0 0 24 24">
      <rect x="2" y="3" width="20" height="14" rx="2" ry="2"></rect>
      <line x1="8" y1="21" x2="16" y2="21"></line>
      <line x1="12" y1="17" x2="12" y2="21"></line>
    </symbol>
    <symbol id="folder" viewBox="0 0 24 24">
      <path d="M22 19a2 2 0 0 1-2 2H4a2 2 0 0 1-2-2V5a2 2 0 0 1 2-2h5l2 3h9a2 2 0 0 1 2 2z"></path>
    </symbol>
    <symbol id="globe" viewBox="0 0 24 24">
      <circle cx="12" cy="12" r="10"></circle>
      <line x1="2" y1="12" x2="22" y2="12"></line>
      <path d="M12 2a15.3 15.3 0 0 1 4 10 15.3 15.3 0 0 1-4 10 15.3 15.3 0 0 1-4-10 15.3 15.3 0 0 1 4-10z"></path>
    </symbol>
    <symbol id="grid" viewBox="0 0 24 24">
      <rect x="3" y="3" width="7" height="7"></rect>
      <rect x="14" y="3" width="7" height="7"></rect>
      <rect x="14" y="14" width="7" height="7"></rect>
      <rect x="3" y="14" width="7" height="7"></rect>
    </symbol>
    <symbol id="check-circle" viewBox="0 0 24 24">
      <path d="M22 11.08V12a10 10 0 1 1-5.93-9.14"></path>
      <polyline points="22 4 12 14.01 9 11.01"></polyline>
    </symbol>
    <symbol id="heart" viewBox="0 0 24 24">
      <path d="M20.84 4.61a5.5 5.5 0 0 0-7.78 0L12 5.67l-1.06-1.06a5.5 5.5 0 0 0-7.78 7.78l1.06 1.06L12 21.23l7.78-7.78 1.06-1.06a5.5 5.5 0 0 0 0-7.78z"></path>
    </symbol>
    <symbol id="plus" viewBox="0 0 24 24">
      <line x1="12" y1="5" x2="12" y2="19"></line>
      <line x1="5" y1="12" x2="19" y2="12"></line>
    </symbol>
    <symbol id="toggle-right" viewBox="0 0 24 24">
      <rect x="1" y="5" width="22" height="14" rx="7" ry="7"></rect>
      <circle cx="16" cy="12" r="3"></circle>
    </symbol>
    <symbol id="toggle-left" viewBox="0 0 24 24">
      <rect x="1" y="5" width="22" height="14" rx="7" ry="7"></rect>
      <circle cx="8" cy="12" r="3"></circle>
    </symbol>
    <symbol id="folder-plus" viewBox="0 0 24 24">
      <path d="M22 19a2 2 0 0 1-2 2H4a2 2 0 0 1-2-2V5a2 2 0 0 1 2-2h5l2 3h9a2 2 0 0 1 2 2z"></path>
      <line x1="12" y1="11" x2="12" y2="17"></line>
      <line x1="9" y1="14" x2="15" y2="14"></line>
    </symbol>
    <symbol id="loader" viewBox="0 0 24 24">
      <line x1="12" y1="2" x2="12" y2="6"></line>
      <line x1="12" y1="18" x2="12" y2="22"></line>
      <line x1="4.93" y1="4.93" x2="7.76" y2="7.76"></line>
      <line x1="16.24" y1="16.24" x2="19.07" y2="19.07"></line>
      <line x1="2" y1="12" x2="6" y2="12"></line>
      <line x1="18" y1="12" x2="22" y2="12"></line>
      <line x1="4.93" y1="19.07" x2="7.76" y2="16.24"></line>
      <line x1="16.24" y1="7.76" x2="19.07" y2="4.93"></line>
    </symbol>
    <symbol id="x" viewBox="0 0 24 24">
      <line x1="18" y1="6" x2="6" y2="18"></line>
      <line x1="6" y1="6" x2="18" y2="18"></line>
    </symbol>
    <symbol id="alert-circle" viewBox="0 0 24 24">
      <circle cx="12" cy="12" r="10"></circle>
      <line x1="12" y1="8" x2="12" y2="12"></line>
      <line x1="12" y1="16" x2="12.01" y2="16"></line>
    </symbol>
    <symbol id="plus-square" viewBox="0 0 24 24">
      <rect x="3" y="3" width="18" height="18" rx="2" ry="2"></rect>
      <line x1="12" y1="8" x2="12" y2="16"></line>
      <line x1="8" y1="12" x2="16" y2="12"></line>
    </symbol>
  </defs>
</svg>
